<svg xmlns="http://www.w3.org/2000/svg" viewBox="0 0 531 531"><defs><style>.a{fill:#8cbe15;}.b{fill:#563e01;}.c{fill:#5f4d16;}.d{fill:#5e4107;}</style></defs><rect class="a" x="80.24" y="77.79" width="375.47" height="375.47" transform="translate(-111.74 267.23) rotate(-45)"/><path class="b" d="M501.2,267.8l-28.15-28.15-25.5,25.5-25.5-25.5L393.9,267.8,422.05,296l25.5-25.5,25.5,25.5Zm-79.15,22.52L399.53,267.8l22.52-22.52,22.52,22.52Zm51-45,22.52,22.52-22.52,22.52L450.53,267.8Z" transform="translate(-2.47 -0.03)"/><path class="c" d="M112.4,224.15V247S86,232,78,268s31,33,33,24v4h10V224.15ZM112,284s-27.62,21-25.81-15.5c0,0-2.19-23.5,25.81-15.5Z" transform="translate(-2.47 -0.03)"/><path class="c" d="M174.7,270.68c2.7-5.33-1.7-30.68-23.2-27.47S130,268,130,268c1,44,43,25.26,43,25.26V284c-36,19-34.38-13.32-34.38-13.32ZM138.28,264s-.28-14,14.43-14,12.8,14,12.8,14Z" transform="translate(-2.47 -0.03)"/><polygon class="c" points="263.53 208.97 254.53 199.97 199.53 254.97 199.53 191.97 184.53 191.97 184.53 346.97 197.42 346.97 197.42 284.97 256.98 344.52 267.03 334.47 202.19 269.63 263.53 208.97"/><path class="d" d="M259.47,283c8.47,16,21.79,0,21.79,0V271.3C254.51,271.61,259.47,283,259.47,283Z" transform="translate(-2.47 -0.03)"/><path class="d" d="M273,212.12l-58.41,58.41L273,328.94l58.41-58.41Zm8.63,85.1V292S257,313,249,284c0,0-6.49-22,32.26-23,0,0,2.74-14-27.26-7v-8s34.89-11,36.45,11v40.21Z" transform="translate(-2.47 -0.03)"/><path class="d" d="M344,252.78V246h-8v51h8V259.55a17.35,17.35,0,0,1,17.94-4.76V246C354.87,244,344,252.78,344,252.78Z" transform="translate(-2.47 -0.03)"/><path class="d" d="M379,251.78V245h-8v51h8V258.55a17.35,17.35,0,0,1,17.94-4.76V245C389.87,243,379,251.78,379,251.78Z" transform="translate(-2.47 -0.03)"/></svg>